<svg width="18" height="18" viewBox="0 0 18 18" fill="none" xmlns="http://www.w3.org/2000/svg">
<path d="M16.8041 15.8637L12.9576 12.0171C13.911 10.8547 14.4857 9.36571 14.4857 7.74286C14.4857 4.02041 11.4653 1 7.74286 1C4.01714 1 1 4.02041 1 7.74286C1 11.4653 4.01714 14.4857 7.74286 14.4857C9.36571 14.4857 10.8514 13.9143 12.0139 12.9608L15.8604 16.8041C16.1216 17.0653 16.5429 17.0653 16.8041 16.8041C17.0653 16.5461 17.0653 16.1216 16.8041 15.8637ZM7.74286 13.1437C4.76163 13.1437 2.33878 10.7208 2.33878 7.74286C2.33878 4.7649 4.76163 2.33878 7.74286 2.33878C10.7208 2.33878 13.1469 4.7649 13.1469 7.74286C13.1469 10.7208 10.7208 13.1437 7.74286 13.1437Z" fill="white" fill-opacity="0.7" stroke="white" stroke-width="0.6"/>
</svg>
