<svg width="17" height="16" viewBox="0 0 17 16" fill="none" xmlns="http://www.w3.org/2000/svg">
<path d="M0.961697 5.42286C0.961697 6.61431 1.40092 7.73116 2.19319 8.5749L8.1652 14.9349C8.25481 15.0303 8.37608 15.0824 8.49523 15.0824C8.61361 15.0824 8.73512 15.0343 8.82526 14.9383L14.8099 8.5885L14.81 8.58845C15.6023 7.74465 16.0383 6.62443 16.0383 5.43313M0.961697 5.42286H1.00002L0.961698 5.42297C0.961697 5.42293 0.961698 5.4229 0.961697 5.42286ZM0.961697 5.42286C0.958517 4.23149 1.39452 3.11123 2.18683 2.26744C2.97608 1.42692 4.0291 0.96168 5.14671 0.96168C6.26756 0.96168 7.32374 1.43035 8.11613 2.27421L8.50477 2.6881L8.88705 2.28099C9.67947 1.43709 10.7325 0.97184 11.8533 0.97184C12.974 0.97184 14.0239 1.43367 14.8163 2.2776C15.6087 3.12147 16.0415 4.24178 16.0383 5.43313M16.0383 5.43313L16 5.43302M16.0383 5.43313C16.0383 5.43309 16.0383 5.43306 16.0383 5.43302H16M16 5.43302C16.0032 4.25111 15.5739 3.14031 14.7884 2.30383C14.003 1.46735 12.9631 1.01016 11.8533 1.01016C10.7435 1.01016 9.70044 1.47073 8.91499 2.30722L8.53105 2.71609L14.7821 8.56222C15.5675 7.72573 16 6.61494 16 5.43302ZM8.49529 13.8876L14.1499 7.88915L8.49529 13.8876ZM8.49529 13.8876L2.85326 7.87899C2.23686 7.22255 1.89693 6.3515 1.89693 5.42286C1.89693 4.49412 2.23375 3.62315 2.85001 2.9702L2.85008 2.97012C3.46322 2.31715 4.28003 1.95608 5.14671 1.95608C6.0166 1.95608 6.83658 2.31717 7.45288 2.97351L8.17156 3.73888C8.35523 3.93448 8.65113 3.93448 8.8348 3.73888L9.54712 2.98028C10.1634 2.32393 10.9834 1.96285 11.8501 1.96285C12.7167 1.96285 13.5336 2.32389 14.1499 2.9769L8.49529 13.8876ZM15.1031 5.43315L15.1031 5.43302C15.1031 4.50433 14.7663 3.63334 14.15 2.97697L15.1031 5.43315ZM15.1031 5.43315C15.1062 6.36167 14.7663 7.23266 14.15 7.8891L15.1031 5.43315Z" fill="#828282" stroke="#828282" stroke-width="0.07664"/>
</svg>
